<svg width="29" height="28" viewBox="0 0 29 28" fill="none" xmlns="http://www.w3.org/2000/svg">
<path d="M5.56866 13.1973C5.56866 13.5049 5.70929 13.751 5.94659 13.874V14.9639C5.50714 15.1924 5.26984 15.6846 5.31378 16.291C5.45441 17.3633 6.23663 19.1738 7.16827 20.6416C8.46027 22.7773 9.2337 23.5332 10.0775 23.5332C11.2112 23.5332 11.7474 22.4785 11.1146 21.3623L7.84503 15.5703C7.59894 15.1396 7.24738 14.9023 6.80792 14.8496V13.8125C6.9837 13.6895 7.08917 13.4697 7.08917 13.1973C7.12433 8.52148 9.95441 5.52441 14.4984 5.52441C19.0423 5.52441 21.8636 8.52148 21.8987 13.1973C21.8987 13.4697 22.0042 13.6895 22.1888 13.8125V14.8496C21.7493 14.9023 21.389 15.1396 21.1517 15.5703L17.8734 21.3623C17.2405 22.4785 17.7855 23.5332 18.9105 23.5332C19.7542 23.5332 20.5276 22.7773 21.8196 20.6416C22.7513 19.1738 23.5335 17.3633 23.6741 16.291C23.7181 15.6846 23.4808 15.1924 23.0413 14.9639V13.874C23.2786 13.751 23.4193 13.5049 23.4193 13.1973C23.4193 7.73047 20.0179 3.99512 14.4984 3.99512C8.97003 3.99512 5.56866 7.73047 5.56866 13.1973ZM9.34796 8.71484C10.7718 7.93262 12.4681 7.5459 14.4984 7.55469C16.5198 7.5459 18.2161 7.93262 19.64 8.71484C18.5062 7.20312 16.8275 6.4209 14.4984 6.4209C12.1605 6.4209 10.4818 7.20312 9.34796 8.71484ZM16.1946 21.7314C16.555 21.9336 16.889 21.8457 17.0823 21.5029L20.7034 15.1133C20.8968 14.7881 20.8089 14.4453 20.4485 14.2432C19.8509 13.9004 19.139 14.1377 18.7523 14.8057L15.8167 19.9912C15.4388 20.6504 15.6058 21.3975 16.1946 21.7314ZM12.7933 21.7314C13.3821 21.3975 13.5491 20.6504 13.1712 19.9912L10.2357 14.8057C9.85773 14.1377 9.14581 13.9004 8.54816 14.2432C8.17902 14.4453 8.09991 14.7881 8.28449 15.1133L11.9056 21.5029C12.0989 21.8457 12.4329 21.9336 12.7933 21.7314Z" fill="#B0B7C0" fill-opacity="0.8"/>
</svg>
