<svg width="16" height="13" viewBox="0 0 16 13" fill="none" xmlns="http://www.w3.org/2000/svg">
<path d="M15.1266 6.69657C15.1266 6.46303 15.0287 6.23703 14.8554 6.07129L9.9059 1.12179C9.71003 0.933454 9.50663 0.850586 9.29569 0.850586C8.81355 0.850586 8.46701 1.18959 8.46701 1.64913C8.46701 1.89021 8.56494 2.09361 8.71561 2.24428L10.4106 3.96191L12.5954 5.95829L10.8476 5.85282H1.71701C1.21226 5.85282 0.865723 6.19936 0.865723 6.69657C0.865723 7.18624 1.21226 7.53278 1.71701 7.53278H10.8476L12.5954 7.42732L10.4106 9.42369L8.71561 11.1413C8.56494 11.292 8.46701 11.4954 8.46701 11.7365C8.46701 12.196 8.81355 12.535 9.29569 12.535C9.50663 12.535 9.71003 12.4521 9.89083 12.2789L14.8554 7.31431C15.0287 7.14858 15.1266 6.92257 15.1266 6.69657Z" fill="#C6CBD2"/>
</svg>
