<svg width="8" height="12" viewBox="0 0 8 12" fill="none" xmlns="http://www.w3.org/2000/svg">
<path d="M0.963379 5.75307C0.963379 5.9728 1.04499 6.16113 1.22077 6.32436L6.10498 11.1081C6.24309 11.2462 6.41888 11.3216 6.62605 11.3216C7.04039 11.3216 7.37312 10.9951 7.37312 10.5745C7.37312 10.3673 7.28523 10.1853 7.14711 10.0409L2.7463 5.75307L7.14711 1.46526C7.28523 1.32087 7.37312 1.13253 7.37312 0.931641C7.37312 0.511021 7.04039 0.18457 6.62605 0.18457C6.41888 0.18457 6.24309 0.259905 6.10498 0.398019L1.22077 5.1755C1.04499 5.34501 0.963379 5.53334 0.963379 5.75307Z" fill="#B0B7C0" fill-opacity="0.8"/>
</svg>
