<svg width="8" height="12" viewBox="0 0 8 12" fill="none" xmlns="http://www.w3.org/2000/svg">
<path d="M7.03669 5.75307C7.03041 5.53334 6.9488 5.34501 6.7793 5.1755L1.89509 0.398019C1.7507 0.259905 1.58119 0.18457 1.37402 0.18457C0.953404 0.18457 0.626953 0.511021 0.626953 0.931641C0.626953 1.13253 0.708566 1.32087 0.852958 1.46526L5.24749 5.75307L0.852958 10.0409C0.708566 10.1853 0.626953 10.3673 0.626953 10.5745C0.626953 10.9951 0.953404 11.3216 1.37402 11.3216C1.57492 11.3216 1.7507 11.2462 1.89509 11.1081L6.7793 6.32436C6.95508 6.16113 7.03669 5.9728 7.03669 5.75307Z" fill="#B0B7C0" fill-opacity="0.8"/>
</svg>
