<svg width="32" height="32" viewBox="0 0 32 32" fill="none" xmlns="http://www.w3.org/2000/svg">
<path d="M8.2154 21.7722C7.79353 22.1941 7.77344 22.9474 8.22545 23.3894C8.66741 23.8313 9.42076 23.8213 9.84263 23.3994L15.99 17.2421L22.1473 23.3994C22.5792 23.8313 23.3225 23.8313 23.7645 23.3894C24.1964 22.9374 24.2065 22.2041 23.7645 21.7722L17.6172 15.6148L23.7645 9.46751C24.2065 9.03559 24.2065 8.29228 23.7645 7.85032C23.3125 7.4184 22.5792 7.40835 22.1473 7.84027L15.99 13.9976L9.84263 7.84027C9.42076 7.4184 8.65737 7.39831 8.22545 7.85032C7.78348 8.29228 7.79353 9.04563 8.2154 9.46751L14.3728 15.6148L8.2154 21.7722Z" fill="#B0B7C0" fill-opacity="0.8"/>
</svg>
