<svg width="120" height="24" viewBox="0 0 120 24" fill="none" xmlns="http://www.w3.org/2000/svg">
<path fill-rule="evenodd" clip-rule="evenodd" d="M37.866 0.776285C38.2347 1.09328 38.2767 1.64917 37.9597 2.01792C33.6653 7.01338 31.1952 10.7051 30.0294 13.2265C29.4428 14.4954 29.2212 15.3951 29.2144 15.9778C29.2079 16.5306 29.3811 16.6438 29.4607 16.6846C29.6318 16.7721 30.0438 16.8328 30.8059 16.6065C31.5361 16.3896 32.4492 15.9488 33.4923 15.2675C35.5734 13.9081 38.0598 11.6654 40.4785 8.64201C40.7823 8.2623 41.3364 8.20074 41.7161 8.50451C42.0958 8.80828 42.1573 9.36234 41.8536 9.74205C39.8286 12.2732 38.9364 14.0055 38.7134 15.0599C38.6038 15.5781 38.6805 15.8144 38.7288 15.8988C38.7612 15.9555 38.8361 16.0452 39.0976 16.0885C39.7005 16.1882 40.8156 15.9409 42.233 15.1702C43.6059 14.4236 45.1224 13.2606 46.4803 11.7602C46.5023 11.7358 46.5254 11.713 46.5494 11.6917C46.7138 11.5216 46.8909 11.3548 47.0806 11.1921C48.0973 10.3204 49.3699 9.56884 50.5744 9.11946C51.1774 8.89452 51.7905 8.73504 52.3654 8.68489C52.9289 8.63574 53.5359 8.68484 54.0589 8.96409C54.5861 9.24553 55.01 9.64972 55.2529 10.1861C55.4883 10.706 55.5176 11.2698 55.4082 11.8243C55.7375 11.4619 56.1066 11.0828 56.5171 10.6869C56.7056 10.505 56.9544 10.4241 57.1965 10.4428C57.5955 10.4598 57.945 10.7485 58.023 11.1578C58.0766 11.4386 58.0031 11.676 57.942 11.818C57.8779 11.9669 57.7912 12.0948 57.7131 12.1958C57.5564 12.3981 57.3473 12.6012 57.1298 12.7922C56.9057 12.9889 56.6401 13.2007 56.3495 13.4202C56.0351 13.7906 55.7804 14.128 55.5788 14.4328C55.127 15.1163 54.99 15.5646 54.977 15.8104C54.9678 15.9831 55.0111 16.0099 55.0573 16.0385L55.0609 16.0407C55.1776 16.1131 55.4623 16.1996 55.9881 16.1631C57.0191 16.0914 58.5425 15.5754 60.1832 14.5568C60.8443 14.1464 61.5142 13.6606 62.1677 13.1014C62.1896 13.0707 62.2119 13.04 62.2344 13.0092C62.8595 12.155 63.7494 11.1789 64.9375 10.0771C64.9582 10.0578 64.9796 10.0398 65.0016 10.023C65.3021 9.77732 65.741 9.75268 66.0716 9.9897C66.4667 10.2731 66.5573 10.8231 66.274 11.2183C65.4313 12.3934 64.478 13.4186 63.4849 14.2899C63.0594 14.9121 62.8714 15.3647 62.8156 15.6622C62.7858 15.8214 62.7993 15.9071 62.8091 15.9422C62.8168 15.9696 62.8259 15.9828 62.8441 15.9987C62.9011 16.0487 63.1056 16.1584 63.593 16.1562C64.5489 16.1517 66.0501 15.7143 67.7403 14.7669C68.6798 14.2403 69.6528 13.5698 70.5924 12.7617C71.0728 12.1149 71.7672 11.3851 72.6865 10.5485C72.8624 10.3884 73.0853 10.3129 73.3056 10.3196C73.5237 10.3047 73.7476 10.3705 73.9288 10.5214C74.3025 10.8326 74.3531 11.3878 74.0419 11.7615C73.3683 12.5703 72.646 13.3027 71.9018 13.9567C71.5847 14.4133 71.5015 14.6911 71.4916 14.8343C71.4855 14.923 71.4978 14.9958 71.6354 15.1205C71.8103 15.2791 72.1304 15.4573 72.6573 15.6505C73.306 15.8885 73.865 16.2082 74.2485 16.6606C74.3645 16.7974 74.4602 16.9416 74.5363 17.0916L74.5432 17.0886C75.1303 16.8328 75.7379 16.568 76.3684 16.2786C78.3959 15.348 80.8221 14.0976 83.9727 11.9295C83.9912 11.9168 84.0099 11.9049 84.029 11.8938C84.499 11.5265 85.0471 11.1755 85.6733 10.8493C87.4377 9.9304 89.0798 9.43125 90.4622 9.248C91.8121 9.06905 93.0188 9.17869 93.8354 9.60545C94.4858 9.94536 94.9918 10.4419 95.2105 11.1069C95.3016 11.3838 95.3341 11.6632 95.32 11.9388C95.4851 11.9028 95.6623 11.9137 95.8312 11.9806C96.1834 12.12 96.3957 12.4613 96.3876 12.8192C96.3865 12.9843 96.3393 13.1489 96.2467 13.2918C96.0753 13.607 95.8032 13.8637 95.5579 14.0624C95.5178 14.0949 95.4763 14.1275 95.4335 14.1601C95.1916 14.4576 95.0668 14.6897 95.0151 14.8586C94.9769 14.9833 94.9856 15.0502 94.9943 15.0837C95.0032 15.1183 95.0284 15.1789 95.1161 15.2652C95.3154 15.4615 95.741 15.6951 96.4993 15.9039C97.2352 16.1066 98.1879 16.2606 99.3385 16.3677C103.963 16.7979 111.282 16.4298 119.062 15.9169C119.547 15.8849 119.966 16.2523 119.998 16.7375C120.03 17.2228 119.663 17.642 119.177 17.674C111.436 18.1845 103.967 18.5668 99.1754 18.121C97.9719 18.0091 96.9062 17.8424 96.0317 17.6016C95.1797 17.367 94.403 17.0342 93.8808 16.5202C93.6077 16.2514 93.3922 15.9209 93.2897 15.5257C93.2864 15.513 93.2833 15.5002 93.2802 15.4875C93.2765 15.4719 93.273 15.4564 93.2697 15.4408C92.5715 15.7948 91.7719 16.1692 90.9022 16.5588C90.8557 16.5796 90.8084 16.5961 90.7607 16.6083C89.2627 17.3247 87.8051 17.7427 86.5256 17.8882C85.0947 18.051 83.7281 17.8887 82.8282 17.233C82.1861 16.7652 81.9042 16.08 81.9135 15.3502C80.0675 16.4556 78.4946 17.2403 77.103 17.879C76.3911 18.2058 75.7437 18.4876 75.1403 18.7502C74.9457 18.8349 74.7557 18.9176 74.5695 18.9992C74.4481 19.3156 74.2773 19.6214 74.0817 19.9126C73.7441 20.4152 73.2922 20.9338 72.7665 21.4632C71.9331 22.3023 71.092 22.8628 70.356 23.1649C69.9902 23.315 69.623 23.4125 69.2787 23.4321C68.9572 23.4504 68.5259 23.4066 68.1748 23.1209C67.7601 22.7835 67.6674 22.2894 67.7514 21.8695C67.8268 21.4925 68.0402 21.1448 68.2905 20.8421C68.8005 20.225 69.6891 19.5258 71.0033 18.778C71.618 18.4282 72.2536 18.1149 72.9148 17.8108C72.9117 17.8069 72.9085 17.8031 72.9052 17.7992C72.797 17.6715 72.5541 17.4883 72.0509 17.3038C71.4606 17.0872 70.8827 16.815 70.4525 16.425C70.1818 16.1795 69.9674 15.8837 69.8445 15.5394C69.428 15.8181 69.0121 16.0727 68.6013 16.303C66.7792 17.3244 64.975 17.9106 63.6012 17.9171C62.9237 17.9202 62.2072 17.7822 61.6832 17.3228C61.3013 16.988 61.1028 16.5574 61.051 16.0906C59.2826 17.1781 57.5058 17.8228 56.1101 17.9198C55.4145 17.9681 54.6984 17.8882 54.1323 17.5369C53.4969 17.1426 53.1777 16.4849 53.2185 15.717C53.2209 15.6711 53.2246 15.6248 53.2296 15.5783C52.6546 15.9627 52.132 16.3136 51.7234 16.6041C51.6602 16.649 51.5932 16.6843 51.5239 16.7105C50.7503 17.2069 49.948 17.5596 49.1838 17.7484C47.9006 18.0655 46.3924 17.9747 45.5763 16.8178C45.2814 16.3998 45.1024 15.9378 45.0353 15.452C44.376 15.9447 43.7152 16.3686 43.0742 16.7172C41.5631 17.5389 40.0097 18.0243 38.8101 17.8258C38.1703 17.7199 37.5605 17.4028 37.2004 16.7734C36.8798 16.2133 36.8373 15.5428 36.9605 14.8498C36.095 15.5879 35.2532 16.2206 34.4552 16.7418C33.3247 17.4802 32.2539 18.0134 31.3072 18.2945C30.3923 18.5662 29.4341 18.6489 28.6586 18.2522C27.7918 17.8087 27.4422 16.9314 27.4536 15.9572C27.4613 15.2935 27.6301 14.5213 27.9482 13.6484C26.8764 14.628 25.769 15.4466 24.5206 16.1061C22.216 17.3236 19.506 17.9606 15.7797 18.1707C12.064 18.3803 7.28297 18.1675 0.810251 17.6493C0.325535 17.6105 -0.0359493 17.1861 0.00285344 16.7014C0.0416562 16.2167 0.466052 15.8552 0.950768 15.894C7.4144 16.4114 12.0933 16.6149 15.6806 16.4126C19.2574 16.2109 21.6936 15.608 23.6981 14.5491C25.7079 13.4873 27.3584 11.9286 29.3119 9.6767C30.2149 8.63581 31.1701 7.462 32.2531 6.13114L32.254 6.12997L32.5233 5.79905C33.7145 4.33567 35.0538 2.69708 36.6197 0.875336L36.6243 0.869993C36.9413 0.501249 37.4972 0.459295 37.866 0.776285ZM47.7744 12.9545C47.7178 13.0169 47.661 13.0788 47.6039 13.1401C46.5605 14.3324 46.6794 15.3267 47.0152 15.8027C47.1884 16.0483 47.7066 16.2996 48.7614 16.0389C49.753 15.7939 50.9379 15.1375 51.9562 14.1006C53.0324 13.0046 53.5474 12.1159 53.676 11.5058C53.7364 11.2192 53.7039 11.0342 53.6488 10.9126C53.5949 10.7937 53.482 10.6523 53.2296 10.5175C53.1237 10.461 52.9024 10.4057 52.5184 10.4392C52.1459 10.4717 51.6924 10.5819 51.1899 10.7693C50.1836 11.1447 49.0899 11.7888 48.2269 12.5289C48.059 12.6728 47.9087 12.8149 47.7744 12.9545ZM86.4867 12.4111C88.0903 11.5759 89.5368 11.147 90.6936 10.9937C91.8829 10.836 92.666 10.9812 93.0197 11.1661C93.3854 11.3572 93.5001 11.5426 93.5377 11.6571C93.5761 11.7737 93.5858 11.9729 93.4337 12.2905C93.1115 12.9632 92.1983 13.86 90.6129 14.7095C89.0481 15.5479 87.5515 15.9993 86.3265 16.1386C85.0587 16.2828 84.2345 16.0789 83.8652 15.8098C83.7311 15.7121 83.5261 15.4324 83.8205 14.7816C84.1187 14.1222 84.9094 13.2326 86.4867 12.4111Z" fill="#D5DAE1"/>
</svg>
