<svg width="20" height="18" viewBox="0 0 20 18" fill="none" xmlns="http://www.w3.org/2000/svg">
<path d="M12.6096 1.84591C12.5115 1.06128 11.5846 0.695504 10.9771 1.20172L5.95804 5.38431C5.86818 5.45919 5.75492 5.5002 5.63795 5.5002H1.75C1.05964 5.5002 0.5 6.05984 0.5 6.7502V11.2502C0.5 11.9406 1.05964 12.5002 1.75 12.5002H5.63795C5.75492 12.5002 5.86818 12.5412 5.95804 12.6161L10.9771 16.7987C11.5846 17.3049 12.5115 16.9391 12.6096 16.1545L12.7054 15.388C12.7054 11 12.7054 7 12.7054 2.61241L12.6096 1.84591Z" fill="#D5DAE1"/>
<path d="M17.9082 2.94597C18.3014 2.8159 18.7257 3.02926 18.8557 3.42253C19.4362 5.17749 19.75 7.05295 19.75 9.00021C19.75 10.9475 19.4362 12.8229 18.8557 14.5779C18.7257 14.9711 18.3014 15.1845 17.9082 15.0544C17.5149 14.9244 17.3015 14.5001 17.4316 14.1069C17.9624 12.5019 18.25 10.7854 18.25 9.00021C18.25 7.215 17.9624 5.49847 17.4316 3.89354C17.3015 3.50028 17.5149 3.07603 17.9082 2.94597Z" fill="#D5DAE1"/>
<path d="M16.0323 4.9479C15.8894 4.5591 15.4584 4.35972 15.0696 4.50257C14.6808 4.64542 14.4815 5.07641 14.6243 5.46521C15.0288 6.56615 15.25 7.7565 15.25 9.0002C15.25 10.0318 15.0978 11.0265 14.8152 11.9639C14.7995 12.0161 14.7833 12.0681 14.7668 12.12C14.7222 12.2597 14.6747 12.3981 14.6243 12.5352C14.4815 12.924 14.6808 13.355 15.0696 13.4978C15.4584 13.6407 15.8894 13.4413 16.0323 13.0525C16.0901 12.8952 16.1446 12.7364 16.1958 12.5761C16.2148 12.5165 16.2333 12.4568 16.2514 12.3969C16.5758 11.3206 16.75 10.1801 16.75 9.0002C16.75 7.57741 16.4968 6.21207 16.0323 4.9479Z" fill="#D5DAE1"/>
</svg>
