<svg width="14" height="22" viewBox="0 0 14 22" fill="none" xmlns="http://www.w3.org/2000/svg">
<path d="M6.99987 3.56076C8.25695 3.56076 9.27948 4.58329 9.27948 5.84038C9.27948 7.09641 8.25669 8.11894 6.99987 8.11894C5.74358 8.11894 4.72078 7.09641 4.72078 5.84038C4.72052 4.58303 5.74384 3.56076 6.99987 3.56076ZM6.99987 11.3441C10.0364 11.3441 12.5057 8.87556 12.5057 5.84038C12.5057 2.80361 10.0366 0.333984 6.99987 0.333984C3.96363 0.333984 1.494 2.80388 1.494 5.84038C1.494 8.87556 3.96363 11.3441 6.99987 11.3441ZM9.2273 15.8351C10.3599 15.5772 11.4408 15.1296 12.4243 14.5113C12.7864 14.2836 13.0431 13.9213 13.138 13.5042C13.233 13.0871 13.1583 12.6494 12.9306 12.2873C12.8179 12.1079 12.671 11.9524 12.4982 11.8298C12.3254 11.7072 12.1301 11.6198 11.9235 11.5727C11.717 11.5256 11.5031 11.5197 11.2942 11.5553C11.0854 11.591 10.8856 11.6674 10.7063 11.7803C8.45065 13.1984 5.5475 13.1973 3.29371 11.7803C3.11445 11.6674 2.91467 11.5909 2.70582 11.5553C2.49696 11.5196 2.28314 11.5255 2.07657 11.5726C1.87 11.6197 1.67474 11.7071 1.50197 11.8297C1.3292 11.9524 1.18231 12.1079 1.06971 12.2873C0.841852 12.6493 0.767101 13.0869 0.861892 13.504C0.956683 13.9211 1.21325 14.2834 1.57517 14.5113C2.55856 15.1294 3.63924 15.5769 4.77164 15.8351L1.69377 18.9135C1.3913 19.2161 1.22141 19.6264 1.22149 20.0543C1.22156 20.4821 1.39159 20.8924 1.69416 21.1948C1.99674 21.4973 2.40708 21.6672 2.83491 21.6671C3.26274 21.667 3.67302 21.497 3.97549 21.1944L6.99934 18.1701L10.025 21.1947C10.1746 21.3445 10.3523 21.4634 10.5479 21.5445C10.7435 21.6256 10.9531 21.6673 11.1648 21.6673C11.3766 21.6673 11.5862 21.6256 11.7818 21.5445C11.9774 21.4634 12.1551 21.3445 12.3047 21.1947C12.4547 21.0451 12.5737 20.8674 12.655 20.6717C12.7362 20.476 12.778 20.2662 12.778 20.0544C12.778 19.8425 12.7362 19.6327 12.655 19.437C12.5737 19.2414 12.4547 19.0636 12.3047 18.914L9.2273 15.8351Z" fill="#B0B7C0" fill-opacity="0.8"/>
</svg>
