<svg width="8" height="10" viewBox="0 0 8 10" fill="none" xmlns="http://www.w3.org/2000/svg">
<path d="M1.26986 9.35449H2.56075C3.0826 9.35449 3.35177 9.08533 3.35177 8.56348V1.00488C3.35177 0.472046 3.0826 0.21936 2.56075 0.213867H1.26986C0.748007 0.213867 0.478842 0.483032 0.478842 1.00488V8.56348C0.473349 9.08533 0.742514 9.35449 1.26986 9.35449ZM5.44466 9.35449H6.73006C7.25191 9.35449 7.52108 9.08533 7.52108 8.56348V1.00488C7.52108 0.472046 7.25191 0.213867 6.73006 0.213867H5.44466C4.91732 0.213867 4.65365 0.483032 4.65365 1.00488V8.56348C4.65365 9.08533 4.91732 9.35449 5.44466 9.35449Z" fill="black"/>
</svg>
