<svg width="28" height="28" viewBox="0 0 28 28" fill="none" xmlns="http://www.w3.org/2000/svg">
<rect width="28" height="28" rx="14" fill="#D5DAE1"/>
<path d="M11.2699 18.3545H12.5608C13.0826 18.3545 13.3518 18.0853 13.3518 17.5635V10.0049C13.3518 9.47205 13.0826 9.21936 12.5608 9.21387H11.2699C10.748 9.21387 10.4788 9.48303 10.4788 10.0049V17.5635C10.4733 18.0853 10.7425 18.3545 11.2699 18.3545ZM15.4447 18.3545H16.7301C17.2519 18.3545 17.5211 18.0853 17.5211 17.5635V10.0049C17.5211 9.47205 17.2519 9.21387 16.7301 9.21387H15.4447C14.9173 9.21387 14.6536 9.48303 14.6536 10.0049V17.5635C14.6536 18.0853 14.9173 18.3545 15.4447 18.3545Z" fill="black"/>
</svg>
