<svg width="47" height="16" viewBox="0 0 47 16" fill="none" xmlns="http://www.w3.org/2000/svg">
<g clip-path="url(#clip0_1058_2109)">
<g clip-path="url(#clip1_1058_2109)">
<rect width="16" height="16" rx="4" fill="black"/>
<path d="M-3.1295 15.6799C-3.12779 14.8273 -1.82934 13.9902 -1.01096 13.5921C0.135439 13.0334 1.51762 13.5084 2.0763 14.6548C2.63498 15.8012 2.16001 17.1834 1.01361 17.7421C0.668496 17.9112 -0.0935011 18.3794 -0.452286 18.3708H-3.20639L-3.1295 15.6799ZM-2.59304 10.3476C-5.53166 11.7811 -6.75153 15.3245 -5.3181 18.2632C-3.88466 21.2018 -0.342942 22.42 2.59568 20.9883C5.53431 19.5566 6.7542 16.0114 5.32074 13.0727C3.88731 10.1341 0.343874 8.91419 -2.59304 10.3476ZM-4.17682 7.10312C-8.90765 9.40965 -10.8707 15.1144 -8.56427 19.8453C-6.25775 24.5762 -0.553087 26.5393 4.17776 24.2328C8.90859 21.9263 10.8717 16.2215 8.56521 11.4906C6.25869 6.75974 0.554023 4.79493 -4.17682 7.10312ZM-5.75888 3.85866C-12.282 7.03822 -14.9899 14.906 -11.8087 21.4274C-8.62744 27.9488 -0.761524 30.6585 5.76155 27.4772C12.2846 24.296 14.9908 16.4299 11.8096 9.90684C8.62838 3.38369 0.762462 0.677395 -5.75888 3.85866Z" stroke="url(#paint0_linear_1058_2109)" stroke-width="1.95833" stroke-miterlimit="10"/>
</g>
<path d="M22.2632 4.76204C21.8914 4.8888 21.6109 5.02212 21.4216 5.16202L21.4229 6.81906C21.5267 6.66209 21.6489 6.51826 21.7868 6.39054C21.9395 6.24677 22.1072 6.12014 22.287 6.01277C22.4797 5.89872 22.6864 5.81066 22.9019 5.75089C23.1345 5.68701 23.3754 5.65871 23.6164 5.66694C23.7818 5.67185 23.9463 5.6925 24.1079 5.72866C24.248 5.75894 24.3824 5.81209 24.5055 5.88603C24.6154 5.95214 24.7065 6.04546 24.7702 6.15717C24.8357 6.27832 24.8683 6.41466 24.8648 6.55254C24.866 6.67272 24.8453 6.79209 24.8036 6.90466C24.7617 7.0138 24.6952 7.11163 24.6093 7.19049C24.5082 7.28037 24.3889 7.34694 24.2596 7.38569C24.0845 7.43729 23.9026 7.46134 23.7202 7.457H22.7268V8.4366H23.731C24.2482 8.4366 24.6218 8.5066 24.8519 8.64649C25.0821 8.78637 25.1971 9.00546 25.1971 9.30374C25.2008 9.46054 25.1616 9.61534 25.0837 9.75117C25.0065 9.87963 24.9013 9.98872 24.7761 10.0701C24.6353 10.1609 24.4803 10.2269 24.3175 10.2653C24.1317 10.3109 23.941 10.3333 23.7498 10.332C23.4651 10.3341 23.1811 10.3039 22.9031 10.2418C22.6587 10.188 22.422 10.1034 22.1987 9.98997C21.9994 9.8886 21.8148 9.76054 21.6497 9.60929C21.4979 9.47049 21.3673 9.30997 21.262 9.13294V10.5994C21.3685 10.7165 21.4912 10.8176 21.6263 10.8995C21.7995 11.0074 21.9833 11.0968 22.1749 11.1664C22.405 11.2509 22.6422 11.3145 22.8835 11.3565C23.1631 11.4058 23.4464 11.4297 23.7302 11.4279C24.1252 11.4344 24.5188 11.3799 24.8974 11.2663C25.2032 11.1746 25.4899 11.0277 25.7436 10.8328C25.9631 10.6615 26.1384 10.4395 26.2546 10.1856C26.3685 9.93277 26.4265 9.65809 26.4247 9.38054C26.425 8.49163 25.9205 7.971 24.9111 7.81883C25.6932 7.53986 26.0842 7.01603 26.0842 6.2474C26.0842 5.95529 26.0258 5.70457 25.9091 5.49528C25.7891 5.28216 25.6169 5.10355 25.4089 4.97652C25.168 4.83069 24.904 4.72762 24.6285 4.6718C24.2956 4.60196 23.9564 4.56833 23.6164 4.57149C23.0861 4.57177 22.6351 4.63529 22.2632 4.76204Z" fill="#57B8FF"/>
<path fill-rule="evenodd" clip-rule="evenodd" d="M27.5889 4.66699V11.3329L30.303 11.3333C30.6672 11.3376 31.0307 11.301 31.3868 11.2241C31.6773 11.1632 31.9535 11.0468 32.2005 10.8813C32.4217 10.7289 32.5995 10.521 32.7162 10.2781C32.836 10.0308 32.8958 9.73556 32.8958 9.39253C32.8956 8.95379 32.8009 8.60613 32.6119 8.34956C32.423 8.09299 32.1234 7.92956 31.7132 7.85933C32.0542 7.72448 32.3035 7.53013 32.461 7.27636C32.6187 7.02253 32.6974 6.70511 32.6974 6.32402C32.6974 5.21934 31.9533 4.66699 30.4652 4.66699H27.5889ZM31.1884 7.24779C30.9708 7.40648 30.6727 7.48579 30.2942 7.48579H28.7715V5.76202H30.3226C30.745 5.76259 31.0493 5.83253 31.2355 5.97191C31.4217 6.11122 31.5148 6.31436 31.5148 6.58128C31.5148 6.86699 31.406 7.08916 31.1884 7.24779ZM31.3781 10.0141C31.1649 10.1633 30.8314 10.2378 30.3776 10.2378H28.7686V8.41922H30.3943C30.8103 8.41922 31.1318 8.48579 31.3589 8.61899C31.5859 8.75219 31.6995 8.98082 31.6995 9.30482C31.6983 9.62853 31.5912 9.86499 31.3781 10.0141Z" fill="#57B8FF"/>
<path d="M35.5163 10.2857C35.6351 10.288 35.7525 10.259 35.8568 10.2017C35.9574 10.1441 36.0457 10.0393 36.1215 9.88739L33.2273 4.66699H34.5992L36.7289 8.53339L38.4693 4.66699H39.7086L37.2775 9.94276C37.1675 10.1944 37.0344 10.4351 36.8798 10.6617C36.7657 10.8292 36.6289 10.9798 36.4734 11.1092C36.3456 11.2145 36.1988 11.2938 36.0411 11.3429C35.8859 11.3884 35.725 11.4109 35.5634 11.4097C35.4186 11.4104 35.2743 11.3944 35.1332 11.3618C35.0184 11.3369 34.9059 11.302 34.7972 11.2573V10.0192C34.8907 10.1049 35 10.1714 35.119 10.2148C35.2461 10.2624 35.3807 10.2862 35.5163 10.2857Z" fill="#57B8FF"/>
<path d="M40.5015 11.3329H41.6837V8.44774H42.7337L45.1365 11.3329H46.6501L43.7176 7.83836L46.2432 4.66699H44.8055L42.6771 7.46688H41.6837V4.66699H40.5015V11.3329Z" fill="#57B8FF"/>
</g>
<defs>
<linearGradient id="paint0_linear_1058_2109" x1="9.83858" y1="25.6344" x2="-9.83685" y2="5.7014" gradientUnits="userSpaceOnUse">
<stop stop-color="#F212FF"/>
<stop offset="0.35" stop-color="#5AAFFF"/>
<stop offset="0.4318" stop-color="#59B3FF"/>
<stop offset="0.5087" stop-color="#55BEFF"/>
<stop offset="0.5835" stop-color="#4FD1FF"/>
<stop offset="0.6567" stop-color="#46ECFF"/>
<stop offset="0.7" stop-color="#40FFFF"/>
</linearGradient>
<clipPath id="clip0_1058_2109">
<rect width="47" height="16" fill="white"/>
</clipPath>
<clipPath id="clip1_1058_2109">
<rect width="16" height="16" rx="4" fill="white"/>
</clipPath>
</defs>
</svg>
