<svg width="16" height="16" viewBox="0 0 16 16" fill="none" xmlns="http://www.w3.org/2000/svg">
<g clip-path="url(#clip0_1058_2110)">
<rect width="16" height="16" rx="4" fill="black"/>
<path d="M-3.1295 15.6799C-3.12779 14.8273 -1.82934 13.9902 -1.01096 13.5921C0.135439 13.0334 1.51762 13.5084 2.0763 14.6548C2.63498 15.8012 2.16001 17.1834 1.01361 17.7421C0.668496 17.9112 -0.0935011 18.3794 -0.452286 18.3708H-3.20639L-3.1295 15.6799ZM-2.59304 10.3476C-5.53166 11.7811 -6.75153 15.3245 -5.3181 18.2632C-3.88466 21.2018 -0.342942 22.42 2.59568 20.9883C5.53431 19.5566 6.7542 16.0114 5.32074 13.0727C3.88731 10.1341 0.343874 8.91419 -2.59304 10.3476ZM-4.17682 7.10312C-8.90765 9.40965 -10.8707 15.1144 -8.56427 19.8453C-6.25775 24.5762 -0.553087 26.5393 4.17776 24.2328C8.90859 21.9263 10.8717 16.2215 8.56521 11.4906C6.25869 6.75974 0.554023 4.79493 -4.17682 7.10312ZM-5.75888 3.85866C-12.282 7.03822 -14.9899 14.906 -11.8087 21.4274C-8.62744 27.9488 -0.761524 30.6585 5.76155 27.4772C12.2846 24.296 14.9908 16.4299 11.8096 9.90684C8.62838 3.38369 0.762462 0.677395 -5.75888 3.85866Z" stroke="url(#paint0_linear_1058_2110)" stroke-width="1.95833" stroke-miterlimit="10"/>
</g>
<defs>
<linearGradient id="paint0_linear_1058_2110" x1="9.83858" y1="25.6344" x2="-9.83685" y2="5.7014" gradientUnits="userSpaceOnUse">
<stop stop-color="#F212FF"/>
<stop offset="0.35" stop-color="#5AAFFF"/>
<stop offset="0.4318" stop-color="#59B3FF"/>
<stop offset="0.5087" stop-color="#55BEFF"/>
<stop offset="0.5835" stop-color="#4FD1FF"/>
<stop offset="0.6567" stop-color="#46ECFF"/>
<stop offset="0.7" stop-color="#40FFFF"/>
</linearGradient>
<clipPath id="clip0_1058_2110">
<rect width="16" height="16" rx="4" fill="white"/>
</clipPath>
</defs>
</svg>
